<mxfile host="app.diagrams.net" modified="2023-05-19T11:53:45.277Z" agent="Mozilla/5.0 (Windows NT 10.0; Win64; x64) AppleWebKit/537.36 (KHTML, like Gecko) Chrome/90.0.4430.212 Safari/537.36" version="21.3.2" etag="iBQ4Y0vXWy7YZM1n7X2m" type="github">
  <diagram name="Leht-1" id="8r6tp0X8Lqrq_4IZidKc">
    <mxGraphModel>
      <root>
        <mxCell id="0" />
        <mxCell id="1" parent="0" />
      </root>
    </mxGraphModel>
  </diagram>
</mxfile>
